{"glyphs":{":":{"x_min":0,"x_max":596,"ha":596,"o":""},"$":{"x_min":0,"x_max":596,"ha":596,"o":""},"?":{"x_min":0,"x_max":272,"ha":272,"o":"m 29 602 q 29 649 56 678 q 84 708 123 712 q 130 713 136 713 q 166 713 191 694 q 221 670 225 621 q 225 619 226 612 q 227 606 228 598 q 228 590 228 583 q 229 576 229 570 q 229 565 228 560 q 228 548 224 543 q 218 534 197 526 q 190 524 157 514 q 130 506 119 501 q 102 493 100 486 q 98 483 97 470 q 96 457 94 436 q 92 402 90 339 q 86 223 86 177 q 86 171 80 171 q 74 171 74 177 q 74 223 78 339 q 80 403 82 437 q 84 458 85 471 q 87 486 88 490 q 93 502 114 511 q 127 518 154 526 q 187 536 193 538 q 210 544 214 549 q 216 552 216 561 q 217 565 217 570 q 217 576 216 582 q 216 589 216 597 q 215 605 214 612 q 213 618 213 621 q 210 663 184 684 q 162 701 134 701 l 124 701 q 90 697 66 670 q 41 644 41 602 q 41 596 35 596 q 29 596 29 602 z m 96 47 q 96 40 92 36 q 87 31 80 31 q 73 31 68 36 q 64 40 64 47 q 64 54 68 58 q 73 63 80 63 q 87 63 92 58 q 96 54 96 47 z"},"<":{"x_min":0,"x_max":596,"ha":596,"o":""},"'":{"x_min":0,"x_max":596,"ha":596,"o":""},"=":{"x_min":0,"x_max":510,"ha":510,"o":"m 420 339 q 356 339 228 344 q 101 350 37 350 q 32 350 32 355 q 32 360 37 360 q 101 360 228 354 q 356 349 420 349 q 425 349 425 344 q 425 339 420 339 z m 423 142 q 380 146 328 148 q 276 150 241 150 q 205 150 142 150 q 80 149 53 149 q 48 149 48 154 q 48 159 53 159 q 80 159 142 160 q 205 160 241 160 q 277 160 329 158 q 381 156 423 152 q 428 151 428 147 q 427 142 423 142 z"},"a":{"x_min":0,"x_max":434,"ha":434,"o":"m 339 506 q 332 418 332 258 q 332 227 334 141 q 335 55 335 9 q 335 4 330 4 q 325 4 325 9 q 325 42 324 83 q 309 57 281 36 q 253 15 222 5 q 203 -2 183 -2 q 167 -2 151 3 q 114 13 94 49 q 59 119 59 210 l 59 229 q 63 332 102 408 q 119 444 150 470 q 181 495 215 503 q 226 505 237 505 q 258 505 278 496 q 307 481 325 442 q 326 475 329 506 q 329 511 334 511 q 339 511 339 506 z m 320 426 q 305 468 278 484 q 258 495 237 495 q 227 495 217 493 q 186 486 156 462 q 127 437 110 404 q 73 330 69 229 l 69 210 q 69 121 102 53 q 120 21 153 12 q 167 8 181 8 q 200 8 219 15 q 253 25 282 50 q 311 74 323 103 l 324 104 q 322 254 322 258 l 322 304 q 322 371 324 423 q 321 424 320 426 z"},"L":{"x_min":0,"x_max":258,"ha":258,"o":"m 56 695 q 63 671 64 641 l 64 622 q 64 599 63 570 q 60 530 60 516 q 60 463 62 358 q 65 252 65 199 q 65 195 64 180 q 64 165 64 143 q 63 121 62 103 l 62 46 q 62 33 63 26 q 63 23 64 21 l 64 20 q 66 19 69 19 q 76 18 87 17 q 107 17 143 19 q 159 19 182 20 l 219 23 q 234 24 239 24 q 245 24 245 18 q 245 12 239 12 q 234 12 219 11 l 182 8 q 160 7 143 7 q 107 5 87 5 q 75 6 67 7 q 63 7 60 8 q 56 10 54 12 q 53 14 52 18 q 51 21 51 25 q 50 33 50 46 l 50 103 q 51 121 52 144 q 52 166 52 180 q 53 195 53 199 q 53 252 50 358 q 48 463 48 516 q 48 532 51 571 q 52 599 52 622 l 52 639 q 51 668 44 691 l 44 693 q 44 697 49 699 l 51 699 q 54 699 56 695 z"},"3":{"x_min":0,"x_max":429,"ha":429,"o":"m 117 697 q 130 701 163 701 l 177 701 q 186 701 204 700 q 222 700 232 700 l 238 700 q 245 701 251 701 l 263 701 q 266 701 268 700 l 270 700 q 271 700 272 699 l 274 697 q 275 695 275 693 q 275 691 274 689 q 273 686 270 683 q 266 678 257 670 q 247 660 218 634 l 178 598 q 169 589 165 584 q 164 583 163 581 q 164 581 166 580 q 171 578 181 577 q 185 576 197 574 q 207 572 209 572 q 258 555 294 507 q 330 457 344 356 q 350 313 350 274 q 350 232 343 196 q 323 87 274 38 q 243 7 208 2 q 200 0 192 0 q 167 0 146 14 q 119 30 101 62 q 83 93 81 131 q 81 137 87 137 q 93 137 93 131 q 95 96 112 68 q 128 39 153 24 q 170 12 192 12 q 199 12 207 14 q 238 18 266 46 q 312 92 331 198 q 337 233 337 275 q 337 312 332 355 q 319 452 284 499 q 251 544 205 560 q 204 561 195 562 q 183 564 178 565 q 168 567 161 569 q 157 570 155 572 q 151 575 150 579 q 150 582 152 586 q 153 589 156 592 q 160 597 169 606 l 210 643 l 249 678 q 255 685 259 689 l 251 689 q 246 689 239 688 l 232 688 q 222 688 204 688 q 185 689 177 689 l 164 689 q 132 689 121 685 l 118 685 q 115 685 113 689 l 113 692 q 113 696 117 697 z"},";":{"x_min":0,"x_max":596,"ha":596,"o":""},"J":{"x_min":0,"x_max":285,"ha":285,"o":"m 182 694 q 184 671 184 635 q 184 612 183 582 q 182 545 182 517 q 182 490 183 472 q 188 395 188 323 q 188 210 175 110 q 170 77 150 50 q 130 23 104 10 q 87 2 73 2 q 62 2 53 6 q 28 16 18 50 q 13 70 12 93 q 11 106 11 124 l 11 150 q 12 185 12 191 q 12 197 18 197 q 24 197 24 191 q 24 183 23 149 l 23 94 q 24 73 30 54 q 38 25 58 18 q 65 15 74 15 q 85 15 99 21 q 122 32 140 57 q 159 82 163 112 q 176 212 176 324 q 176 395 171 472 q 170 490 170 517 q 170 545 171 583 q 172 612 172 635 q 172 670 170 692 l 170 694 q 170 698 175 699 l 177 699 q 181 699 182 694 z m 174 768 q 184 768 184 758 q 184 748 174 748 q 164 748 164 758 q 164 768 174 768 z"},"V":{"x_min":0,"x_max":372,"ha":372,"o":"m 22 693 q 27 638 55 538 q 83 438 87 418 q 125 248 150 164 q 153 152 175 75 l 188 28 l 190 20 q 191 24 193 29 q 199 46 207 77 q 213 97 221 128 q 229 160 230 166 q 244 212 258 333 q 263 370 277 438 q 292 512 296 543 q 297 547 300 578 q 304 608 306 622 q 309 635 314 658 q 320 680 328 695 q 329 698 332 698 l 336 698 q 339 696 339 693 q 339 691 338 689 q 331 675 326 654 q 320 633 318 620 q 316 607 312 577 q 309 547 308 541 q 303 511 288 436 q 274 368 270 331 q 255 210 242 162 q 240 157 232 125 l 219 74 l 205 25 q 201 15 198 9 q 196 6 195 4 q 192 0 188 0 q 186 0 184 1 l 184 2 l 182 4 l 182 6 q 181 7 180 10 l 176 25 l 163 72 q 141 152 138 160 q 113 245 75 416 q 71 432 44 534 q 16 636 10 691 l 10 693 q 10 697 15 698 l 17 698 q 21 698 22 693 z"},"\"":{"x_min":0,"x_max":596,"ha":596,"o":""},"7":{"x_min":0,"x_max":429,"ha":429,"o":"m 118 704 q 141 706 198 706 q 213 707 225 707 q 237 707 246 706 q 257 705 264 704 q 267 704 270 703 q 273 702 275 700 q 277 698 278 694 q 279 692 279 688 q 279 681 278 669 q 277 651 272 618 q 269 602 263 566 q 258 539 258 533 l 257 527 q 280 527 297 525 q 302 524 302 520 q 301 515 297 515 q 285 516 271 516 l 256 516 q 231 239 231 6 q 231 0 225 0 q 219 0 219 6 q 219 239 244 516 l 229 516 q 206 515 189 515 q 172 515 160 516 q 155 516 155 521 q 155 526 160 526 q 172 525 189 525 q 206 525 228 526 l 245 526 l 246 535 q 247 540 251 568 q 258 604 260 620 q 265 652 267 670 l 267 692 l 262 692 q 256 693 246 694 q 237 695 225 695 q 213 695 198 694 q 142 694 118 692 q 113 692 113 698 l 112 698 q 112 703 118 704 z"},"S":{"x_min":0,"x_max":268,"ha":268,"o":"m 158 639 q 158 669 138 684 q 124 693 107 693 q 99 693 91 691 q 63 683 47 652 q 35 630 35 599 q 35 584 38 566 q 43 532 75 495 q 80 488 104 463 q 122 444 132 432 q 177 372 196 286 q 207 235 207 188 q 207 155 202 125 q 194 81 163 48 q 132 16 95 9 q 87 8 80 8 q 51 8 30 29 q 2 60 2 125 q 2 131 8 131 q 14 131 14 125 q 14 64 39 38 q 56 20 80 20 q 86 20 93 21 q 126 27 154 57 q 183 87 190 127 q 195 157 195 188 q 195 234 184 284 q 166 367 122 424 q 113 436 95 455 l 66 487 q 31 527 26 564 q 24 582 24 597 q 24 633 37 658 q 55 693 88 702 q 99 705 108 705 q 128 705 145 694 q 170 676 170 639 q 170 633 164 633 q 158 633 158 639 z"},"}":{"x_min":0,"x_max":596,"ha":596,"o":""},"Z":{"x_min":0,"x_max":289,"ha":289,"o":"m 66 700 l 216 700 q 220 700 222 699 l 224 699 q 226 699 228 697 q 230 695 231 691 l 231 685 q 230 682 228 671 q 225 656 218 633 q 214 617 206 594 q 199 571 198 567 l 182 514 l 202 514 q 208 514 208 508 q 208 502 202 502 l 179 502 l 131 348 l 77 168 q 68 137 31 25 l 24 12 l 23 11 q 28 13 31 13 q 31 14 80 14 l 141 14 l 250 13 q 257 13 257 6 q 257 -1 250 -1 l 141 0 l 80 0 q 32 0 31 -1 q 30 -1 29 -2 q 27 -2 25 -3 q 23 -4 21 -4 q 16 -4 12 0 q 8 4 8 9 q 8 13 11 19 q 12 21 14 23 q 15 25 16 26 q 17 28 17 29 q 55 141 63 172 q 81 235 118 351 q 154 467 164 502 l 125 502 q 119 502 119 508 q 119 514 125 514 l 168 514 l 184 571 l 193 598 l 205 637 q 212 661 215 674 q 216 681 217 686 l 66 686 q 59 686 59 693 q 59 700 66 700 z"},"x":{"x_min":0,"x_max":388,"ha":388,"o":"m 310 492 q 305 489 291 468 l 255 414 l 196 316 q 226 262 279 153 q 327 55 355 18 q 356 16 356 14 q 356 12 354 10 q 351 8 349 8 q 347 8 345 10 q 318 47 269 147 l 189 304 l 160 257 q 106 165 70 97 q 51 62 41 40 q 30 16 29 11 q 28 6 24 6 l 24 7 q 19 7 19 11 q 20 19 32 44 q 42 66 61 102 l 152 262 l 183 314 q 117 435 65 500 q 64 502 64 504 q 64 506 67 509 q 69 510 71 510 q 73 510 75 508 q 125 443 190 326 l 247 419 q 268 453 283 473 q 298 496 304 500 q 306 501 307 501 q 309 501 311 499 q 312 497 312 496 q 312 494 310 492 z"},")":{"x_min":0,"x_max":596,"ha":596,"o":""},"&":{"x_min":0,"x_max":596,"ha":596,"o":""},"_":{"x_min":0,"x_max":596,"ha":596,"o":""},"v":{"x_min":0,"x_max":341,"ha":341,"o":"m 25 484 q 38 440 77 328 q 112 227 127 170 q 129 164 153 82 l 167 35 l 170 27 l 172 33 q 176 47 182 72 q 194 116 198 136 q 259 412 282 495 q 283 499 286 499 l 288 499 q 292 498 292 495 l 292 493 q 269 409 208 134 l 192 69 q 186 43 181 30 q 179 21 177 17 q 176 14 176 12 l 175 11 q 174 9 172 8 l 170 8 q 168 8 166 9 q 166 10 166 10 q 165 11 165 12 q 164 14 163 17 q 161 22 158 32 l 143 79 q 124 140 117 168 q 102 226 68 325 q 28 437 15 482 l 15 483 q 15 486 19 488 l 20 488 q 23 488 25 484 z"},"O":{"x_min":0,"x_max":346,"ha":346,"o":"m 228 577 q 229 575 229 573 q 231 544 238 480 q 245 417 248 378 q 251 339 252 285 l 252 269 q 252 223 247 182 q 241 134 227 89 q 215 50 189 26 q 163 1 133 -1 q 128 -2 123 -2 q 97 -2 76 16 q 51 38 40 83 q 20 161 20 299 q 20 322 21 348 q 24 522 54 611 q 70 655 92 678 q 107 694 125 697 q 129 698 132 698 q 148 698 165 687 q 168 685 176 680 q 184 676 188 673 q 193 670 200 664 q 206 658 209 652 q 225 626 227 583 q 228 580 228 577 z m 218 512 q 217 525 217 547 q 216 572 215 582 q 213 622 199 646 q 196 651 191 656 q 186 660 182 662 l 171 670 q 163 675 159 677 q 146 686 133 686 q 130 686 127 685 q 113 682 101 670 q 80 649 66 607 q 36 520 33 348 q 32 323 32 299 q 32 163 52 85 q 62 45 84 27 q 102 10 125 10 q 128 10 132 11 q 158 13 181 35 q 204 57 215 93 q 229 137 236 185 q 241 223 241 267 l 241 288 q 239 344 236 380 q 233 416 226 481 l 223 507 q 218 508 218 512 z"},"(":{"x_min":0,"x_max":596,"ha":596,"o":""},"C":{"x_min":0,"x_max":344,"ha":344,"o":"m 256 638 q 250 658 238 673 q 225 688 208 690 q 202 691 197 691 q 140 691 102 623 q 75 575 56 487 q 42 422 39 356 q 38 341 38 327 q 38 274 47 219 q 58 148 84 93 q 97 66 120 50 q 143 34 168 32 l 171 32 q 195 32 216 45 q 238 59 250 88 q 266 127 273 203 q 274 208 278 208 l 280 208 q 285 207 285 203 l 285 201 q 278 124 262 84 q 248 51 223 35 q 200 20 174 20 l 167 20 q 139 22 114 40 q 88 58 74 87 q 46 145 35 216 q 26 273 26 327 q 26 341 27 356 q 30 424 44 489 q 64 579 91 629 q 133 703 197 703 q 203 703 210 702 q 231 700 246 682 q 261 664 268 642 l 268 640 q 268 636 264 635 q 262 634 261 634 q 258 634 256 638 z"},"W":{"x_min":0,"x_max":512,"ha":512,"o":"m 18 701 q 31 634 73 503 q 121 353 134 307 q 139 288 150 241 q 160 197 168 170 q 170 163 177 134 l 188 87 q 196 58 201 43 q 204 34 207 29 l 207 30 q 211 35 216 44 q 225 61 239 90 q 245 105 254 124 q 263 144 268 157 q 274 170 277 175 l 277 176 q 277 178 278 180 q 279 183 280 185 q 282 188 286 188 l 288 188 q 294 187 296 182 q 297 179 297 174 l 298 163 q 323 71 337 38 q 341 30 343 28 q 344 34 345 45 l 353 99 q 365 184 366 189 q 417 473 469 681 q 471 686 474 686 l 477 686 q 481 684 481 680 l 481 679 q 429 470 378 187 q 378 186 365 98 l 357 43 l 354 25 q 354 22 353 20 l 353 18 q 353 17 352 16 q 352 15 351 14 q 348 12 345 12 q 343 12 340 14 q 336 15 333 20 q 331 23 327 34 q 312 66 286 159 q 286 162 285 165 l 250 85 q 236 55 226 38 q 221 28 217 23 q 215 20 213 18 q 209 15 206 15 q 202 15 199 19 q 198 21 196 24 q 193 29 190 39 q 184 55 177 84 l 165 130 q 158 160 156 166 q 149 191 138 238 q 127 285 122 303 q 112 340 61 500 q 22 621 6 699 l 6 701 q 6 705 11 706 l 13 706 q 17 706 18 701 z"},"A":{"x_min":0,"x_max":382,"ha":382,"o":"m 154 511 q 161 512 168 512 q 176 512 185 511 q 186 511 201 510 q 216 510 224 510 l 194 660 z m 185 498 q 175 499 166 499 q 157 499 150 498 q 74 209 32 3 q 31 -3 27 -3 q 26 -3 25 -2 q 20 -1 20 2 l 20 5 q 68 248 189 689 l 188 695 l 188 698 q 188 701 193 703 l 195 703 q 199 703 200 697 q 202 695 202 692 l 202 689 q 225 563 276 332 q 328 102 346 9 l 346 6 q 346 3 342 2 q 340 1 339 1 q 335 1 334 7 q 315 100 276 272 q 238 443 227 498 z"},"f":{"x_min":0,"x_max":217,"ha":217,"o":"m 170 617 q 164 649 149 672 q 141 686 132 688 q 130 689 128 689 q 121 689 112 680 q 92 660 91 602 l 91 554 q 93 520 93 513 l 93 505 q 128 509 173 509 q 178 509 178 504 q 178 499 173 499 q 128 499 93 495 q 93 453 94 361 q 96 269 96 221 q 96 202 95 165 q 94 128 94 106 q 94 84 96 53 q 98 22 103 -5 l 103 -7 q 103 -12 97 -13 l 95 -13 q 90 -13 89 -7 q 84 20 82 52 q 80 83 80 106 q 80 129 81 166 q 82 202 82 221 q 82 269 80 360 q 79 452 79 494 q 64 492 49 489 l 47 489 q 44 489 43 493 l 43 495 q 43 498 47 499 q 63 502 79 504 l 79 513 q 79 520 77 553 l 77 603 q 78 666 102 690 q 115 703 128 703 q 132 703 136 702 q 150 697 161 680 q 178 654 184 619 l 184 617 q 184 612 178 611 l 176 611 q 171 611 170 617 z"},"Q":{"x_min":0,"x_max":347,"ha":347,"o":"m 230 577 q 231 575 231 573 q 233 544 240 480 q 247 417 250 378 q 253 339 254 285 l 254 269 q 254 223 249 182 q 243 134 229 89 q 224 73 216 58 q 229 37 251 9 q 252 7 252 5 q 252 3 250 1 q 247 -1 245 -1 q 243 -1 241 1 q 222 27 209 47 q 179 3 135 -1 q 130 -2 125 -2 q 99 -2 78 16 q 53 38 42 83 q 22 161 22 299 q 22 322 23 348 q 26 522 56 611 q 72 655 94 678 q 109 694 127 697 q 131 698 134 698 q 150 698 167 687 q 170 685 178 680 q 186 676 190 673 q 195 670 202 664 q 208 658 211 652 q 227 626 229 583 q 230 580 230 577 z m 220 512 q 219 525 219 547 q 218 572 217 582 q 215 622 201 646 q 198 651 193 656 q 188 660 184 662 l 173 670 q 165 675 161 677 q 148 686 135 686 q 132 686 129 685 q 115 682 103 670 q 82 649 68 607 q 38 520 35 348 q 34 323 34 299 q 34 163 54 85 q 64 45 86 27 q 105 10 129 10 l 134 10 q 174 14 202 58 q 183 88 175 108 l 175 111 q 175 115 179 116 q 181 117 182 117 q 186 117 187 112 q 193 95 208 70 q 214 81 217 93 q 231 137 238 185 q 243 223 243 267 l 243 288 q 241 344 238 380 q 235 416 228 481 l 225 507 q 220 508 220 512 z"},"w":{"x_min":0,"x_max":523,"ha":523,"o":"m 35 491 q 39 468 53 427 q 69 382 74 362 q 80 334 89 285 q 98 236 106 196 q 115 155 127 121 q 142 75 151 52 q 158 33 163 22 q 165 17 167 15 q 168 16 169 18 q 173 24 179 37 q 189 56 206 93 l 233 149 l 242 167 q 243 171 244 173 l 245 174 l 246 175 l 250 177 q 252 177 253 176 l 254 176 q 254 175 255 174 l 256 173 q 257 171 258 167 l 267 149 l 293 93 q 310 57 321 38 q 327 26 331 20 l 332 18 l 333 19 q 335 23 338 31 q 343 46 350 72 q 354 85 358 100 l 365 127 q 368 138 368 140 q 425 343 459 493 q 460 497 463 497 l 465 497 q 469 496 469 493 l 469 491 q 434 341 378 138 q 377 135 374 124 l 367 98 q 363 82 360 69 l 347 28 q 344 19 342 14 q 340 11 339 10 q 337 7 334 6 q 332 6 329 7 l 327 9 q 325 11 323 15 q 319 21 312 33 l 284 89 l 258 144 l 250 162 l 242 144 l 216 88 l 188 32 q 182 19 177 13 q 175 9 173 7 l 171 5 q 170 3 168 3 q 165 3 162 5 l 159 8 l 154 18 q 149 29 141 49 l 117 117 q 106 153 97 194 q 88 234 79 283 q 70 332 64 360 q 60 380 44 424 q 29 465 25 489 l 25 491 q 25 494 29 495 l 31 495 q 34 495 35 491 z"},"-":{"x_min":0,"x_max":386,"ha":386,"o":"m 235 277 l 107 277 q 102 277 102 282 q 102 287 107 287 l 235 287 q 240 287 240 282 q 240 277 235 277 z"},"E":{"x_min":0,"x_max":218,"ha":218,"o":"m 178 685 q 123 692 117 692 q 96 694 82 694 q 68 694 64 692 l 63 692 q 63 690 62 687 q 61 682 60 671 q 58 654 58 623 q 57 610 57 592 q 57 583 58 574 l 58 541 q 58 526 57 511 q 112 511 140 507 q 146 506 146 501 l 146 499 q 145 493 140 493 l 138 493 q 110 497 57 497 l 57 455 q 57 396 59 310 q 61 188 61 138 l 61 124 q 61 114 60 98 q 60 81 60 68 l 60 10 l 195 10 q 201 10 201 4 q 201 -2 195 -2 l 61 -2 q 58 -2 56 -1 l 54 -1 q 52 -1 51 1 q 49 2 49 4 l 49 6 q 48 8 48 11 l 48 68 q 48 81 48 98 q 49 114 49 124 l 49 138 q 49 179 47 322 q 45 401 45 460 q 45 507 46 541 l 46 574 q 45 583 45 592 q 45 610 46 623 q 46 654 48 673 q 49 684 50 690 q 51 694 52 697 q 54 701 57 702 q 64 706 82 706 q 96 706 118 704 q 125 704 180 697 q 185 696 185 692 l 185 690 q 184 685 180 685 z"},"s":{"x_min":0,"x_max":271,"ha":271,"o":"m 176 468 q 156 483 133 487 q 125 488 118 488 q 105 488 94 483 q 61 469 61 432 q 61 423 63 412 q 66 396 79 378 q 80 377 92 362 l 104 345 q 114 328 137 294 q 160 261 172 242 q 184 222 196 190 q 208 157 210 124 l 210 117 q 210 83 194 56 q 176 25 146 11 q 130 3 113 3 q 99 3 85 8 q 52 19 31 57 q 29 59 29 61 q 29 64 34 67 q 36 68 37 68 q 41 68 43 63 q 61 31 89 21 q 101 17 112 17 q 127 17 140 24 q 166 36 182 63 q 196 87 196 117 l 196 124 q 194 154 182 184 q 171 215 160 234 q 148 253 125 286 l 92 337 q 88 344 81 353 q 69 369 68 370 q 53 391 49 410 q 47 421 47 431 q 47 450 54 464 q 65 486 88 496 q 102 502 119 502 q 127 502 136 501 q 162 496 184 480 q 188 478 188 475 q 188 472 186 470 q 184 466 181 466 q 178 466 176 468 z"},">":{"x_min":0,"x_max":596,"ha":596,"o":""},"l":{"x_min":0,"x_max":180,"ha":180,"o":"m 93 695 q 89 670 88 621 q 88 572 88 565 q 84 458 84 395 q 84 387 85 380 q 85 314 88 194 q 90 75 90 10 q 90 5 85 5 q 80 5 80 10 q 80 75 78 195 q 75 315 75 380 q 74 387 74 395 q 74 458 78 565 q 78 570 78 620 q 79 671 83 697 q 84 701 87 701 l 89 701 q 93 700 93 697 z"},"8":{"x_min":0,"x_max":429,"ha":429,"o":"m 207 506 q 177 520 161 552 q 149 576 149 602 q 148 603 148 604 q 148 629 164 653 q 179 677 211 691 q 239 701 261 701 q 280 701 295 694 q 329 678 340 640 q 344 626 344 611 q 344 595 339 578 q 330 547 301 525 q 301 522 299 520 q 281 507 263 502 q 307 489 339 421 q 375 345 380 245 q 381 232 381 219 q 381 131 350 71 q 312 -3 237 -3 l 226 -3 q 210 -2 194 8 q 178 17 172 24 q 165 31 149 47 q 113 85 96 143 q 82 191 82 244 l 82 263 q 85 326 106 382 q 128 439 164 476 q 186 497 199 503 q 203 505 207 506 z m 268 518 q 309 535 325 570 q 335 590 335 611 q 335 624 331 638 q 320 671 291 685 q 278 690 262 690 q 241 690 215 681 q 186 669 172 647 q 158 626 158 603 q 158 602 159 602 q 159 578 170 556 q 188 522 220 512 q 230 509 241 509 q 253 509 265 513 q 265 516 268 518 z m 241 495 q 232 498 223 498 q 213 498 204 494 q 191 488 172 468 q 137 434 116 379 q 95 324 92 263 l 92 244 q 92 192 105 146 q 122 90 157 53 q 172 37 178 32 q 185 25 199 16 q 213 8 226 7 l 236 7 q 305 7 341 75 q 370 133 370 222 l 370 244 q 365 343 330 417 q 294 494 245 494 q 243 494 242 495 z"},"\\":{"x_min":0,"x_max":227,"ha":227,"o":"m -7 692 q 5 638 55 520 q 69 486 89 427 q 113 359 123 334 l 161 240 l 206 127 q 226 77 240 31 l 240 30 q 240 27 237 26 l 235 25 q 232 25 230 29 q 216 74 197 124 l 152 236 l 113 330 q 103 355 80 424 q 60 483 45 516 q -5 634 -17 690 l -17 692 q -17 695 -13 696 l -11 696 q -8 696 -7 692 z"},"e":{"x_min":0,"x_max":344,"ha":344,"o":"m 93 375 l 129 375 q 136 374 156 374 q 175 373 186 373 q 221 372 240 372 q 252 372 258 373 q 262 373 264 374 q 267 376 267 381 l 267 384 q 267 392 262 403 q 251 429 227 452 q 201 477 175 484 q 168 486 161 486 q 142 486 124 472 q 95 445 81 388 q 67 332 67 263 q 68 197 81 138 q 94 79 116 47 q 137 17 198 17 q 218 17 233 24 q 248 30 260 44 q 273 59 280 71 q 287 83 298 105 q 299 108 302 108 l 306 108 q 309 106 309 103 q 309 101 308 99 q 297 77 290 65 q 283 53 270 36 q 256 20 238 12 q 221 5 198 5 q 131 5 106 41 q 83 74 70 135 q 56 196 55 263 l 55 272 q 55 338 69 393 q 84 451 116 480 q 134 497 157 498 l 159 498 q 180 498 199 488 q 218 478 235 461 q 261 436 273 408 q 279 395 279 384 l 279 381 q 279 370 272 364 q 270 363 266 362 q 264 361 260 361 q 252 360 240 360 q 221 360 186 361 q 175 361 155 362 q 135 362 129 363 l 93 363 q 87 363 87 369 q 87 375 93 375 z"},"b":{"x_min":0,"x_max":447,"ha":447,"o":"m 85 416 q 82 166 82 95 l 84 95 q 87 95 88 91 q 97 50 127 28 q 157 6 196 6 l 200 6 q 236 6 269 25 q 303 45 319 82 q 352 153 352 248 l 352 259 q 350 361 313 434 q 294 470 262 483 q 243 490 221 490 q 206 490 190 486 q 159 479 131 460 q 103 442 85 416 z m 74 400 l 73 398 q 72 395 69 395 q 68 395 67 396 q 64 397 64 399 q 64 400 65 402 q 69 411 75 419 q 76 587 76 693 q 76 698 81 698 q 86 698 86 693 q 86 590 85 433 q 126 482 188 496 q 204 500 220 500 q 243 500 265 492 q 301 478 321 438 q 360 363 362 259 l 362 248 q 362 151 329 78 q 310 38 274 17 q 239 -4 200 -4 l 196 -4 q 157 -4 126 16 q 95 37 82 75 l 82 10 q 82 5 77 5 q 72 5 72 10 q 72 119 74 400 z"},"%":{"x_min":0,"x_max":596,"ha":596,"o":""},"m":{"x_min":0,"x_max":535,"ha":535,"o":"m 431 495 q 427 451 427 433 q 427 415 430 370 q 433 325 434 307 q 435 273 441 169 q 447 65 447 8 q 447 2 441 2 q 435 2 435 8 q 435 65 429 169 q 423 273 422 307 q 421 325 418 363 q 416 401 416 421 q 415 424 415 429 q 415 448 417 478 q 390 452 339 408 l 286 364 q 275 355 268 350 q 264 347 262 346 q 260 345 259 345 q 256 344 254 344 q 245 347 219 368 q 197 385 166 413 l 90 482 q 91 398 91 336 q 91 274 90 235 q 89 130 87 80 q 85 46 83 26 q 81 3 77 -4 q 75 -7 72 -7 q 71 -7 69 -6 q 66 -4 66 -1 q 66 0 67 2 q 69 6 71 27 q 73 48 75 81 q 77 138 78 235 l 78 494 q 77 496 77 497 q 77 499 79 501 q 81 503 83 503 q 85 503 87 501 q 115 474 174 422 q 205 394 226 378 q 248 360 256 356 q 258 357 261 360 q 267 364 279 373 l 331 417 q 404 480 418 497 q 419 497 419 498 q 421 502 424 502 l 426 502 q 431 501 431 497 z"},"#":{"x_min":0,"x_max":596,"ha":596,"o":""},",":{"x_min":0,"x_max":307,"ha":307,"o":"m 142 42 q 159 31 162 13 l 162 8 q 162 -15 141 -35 q 139 -37 137 -37 q 135 -37 133 -35 q 131 -33 131 -31 q 131 -29 133 -27 q 150 -9 150 8 l 150 11 q 148 21 141 28 q 140 26 139 24 q 134 20 127 20 q 120 20 116 24 q 111 29 111 36 q 111 43 116 48 q 120 52 127 52 q 134 52 139 48 q 141 45 142 42 z"},"n":{"x_min":0,"x_max":493,"ha":493,"o":"m 82 493 q 143 459 237 393 l 382 291 l 380 370 q 380 377 381 429 l 381 448 q 381 482 378 486 l 378 488 q 378 491 382 492 l 384 492 q 387 492 388 488 q 391 483 391 443 l 391 429 q 390 375 390 370 q 395 175 395 10 q 395 5 390 5 q 385 5 385 10 q 385 136 382 277 q 369 285 230 383 q 138 448 86 477 q 88 469 88 439 l 88 422 q 87 377 87 368 q 92 173 92 8 q 92 3 87 3 q 82 3 82 8 q 82 173 77 368 q 77 375 78 426 l 78 445 q 78 478 75 483 q 73 485 73 488 q 73 489 74 491 q 76 494 79 494 q 80 494 82 493 z"},"h":{"x_min":0,"x_max":442,"ha":442,"o":"m 90 701 q 93 663 93 616 q 93 577 91 533 q 91 511 89 470 q 87 430 86 412 q 99 439 126 462 q 153 486 185 499 q 216 512 242 512 q 254 512 266 509 q 307 498 324 453 q 346 390 351 319 q 352 291 352 259 q 352 210 348 150 q 341 52 341 15 q 341 10 336 10 q 331 10 331 15 q 331 54 338 152 q 342 214 342 264 q 342 293 341 318 q 337 387 314 449 q 300 490 263 499 q 253 502 241 502 q 218 502 189 490 q 150 474 120 443 q 91 412 88 383 q 88 380 85 379 l 85 338 q 85 279 88 189 q 93 49 93 12 q 93 7 88 7 q 83 7 83 12 q 83 49 78 189 q 75 279 75 338 l 75 366 q 76 398 78 456 q 81 515 81 534 q 83 578 83 616 q 83 663 80 701 q 80 706 85 706 q 90 706 90 701 z"},"z":{"x_min":0,"x_max":270,"ha":270,"o":"m 62 507 q 98 509 131 510 q 157 511 172 511 q 182 510 188 510 q 195 509 198 507 q 201 505 202 501 q 203 499 203 496 q 203 491 201 482 q 198 468 190 445 q 178 408 168 382 q 184 380 196 376 q 199 375 199 372 l 199 370 q 197 366 194 366 l 192 366 q 180 371 164 372 q 132 292 97 193 q 71 119 60 77 q 53 51 51 36 q 50 26 50 20 l 50 16 q 52 15 55 15 q 61 13 72 12 q 93 10 126 10 q 142 9 154 9 q 161 9 166 10 l 220 10 q 226 10 226 4 q 226 -2 220 -2 l 166 -2 q 161 -3 154 -3 q 142 -3 126 -2 q 91 -2 71 0 q 59 1 52 3 q 48 4 45 5 q 41 7 40 10 q 38 15 38 23 q 38 29 39 37 q 41 54 48 80 q 60 126 85 197 q 116 286 151 373 q 142 373 126 372 q 109 372 103 372 q 98 372 98 377 q 98 382 103 382 q 108 382 126 382 q 145 383 155 383 l 156 386 q 167 412 179 449 q 186 471 189 485 q 191 492 191 496 l 191 497 q 189 498 186 498 q 181 498 172 499 q 157 499 131 498 q 98 497 62 495 q 56 495 56 501 q 56 507 62 507 z"},"B":{"x_min":0,"x_max":368,"ha":368,"o":"m 145 506 q 105 472 53 469 q 52 413 52 344 q 52 294 54 180 q 56 65 56 4 q 108 4 155 28 q 202 51 234 89 q 266 127 285 176 q 304 225 306 275 l 306 282 q 306 328 289 373 q 270 422 231 457 q 206 480 188 492 q 169 503 145 506 z m 141 516 q 180 551 186 600 q 187 609 187 617 q 187 652 163 672 q 141 691 104 691 q 86 691 64 686 q 55 592 53 479 q 101 482 137 513 q 138 515 141 516 z m 58 695 q 84 701 105 701 q 145 701 170 680 q 197 656 197 617 q 197 608 196 599 q 190 551 154 514 q 190 508 237 465 q 278 428 297 377 q 316 330 316 282 l 316 275 q 314 223 294 172 q 274 121 240 82 q 207 43 158 18 q 110 -6 55 -6 q 53 -6 52 -5 l 51 -5 q 46 -5 46 0 q 46 62 44 178 q 42 294 42 344 q 42 413 43 469 q 40 471 40 474 q 40 477 43 479 q 45 593 54 688 l 54 691 q 54 694 58 695 z"},"K":{"x_min":0,"x_max":332,"ha":332,"o":"m 52 694 q 58 671 59 642 l 59 625 q 59 602 58 573 q 55 533 55 520 q 56 521 58 522 q 66 527 78 538 q 101 558 136 593 q 204 664 230 699 q 232 701 234 701 q 236 701 239 700 q 241 697 241 695 q 241 693 240 691 q 213 656 144 585 l 117 558 q 122 531 132 501 q 143 471 158 435 q 174 399 181 378 q 189 353 230 203 q 239 170 263 107 q 290 37 297 10 l 297 8 q 297 4 293 3 q 291 2 290 2 q 287 2 285 6 q 276 39 252 102 q 227 166 218 199 q 215 212 204 253 q 194 294 186 322 q 178 349 169 374 q 167 382 140 448 q 114 513 107 548 l 86 529 q 73 518 64 512 q 59 509 55 507 q 55 426 53 260 q 51 94 51 10 q 51 4 45 4 q 39 4 39 10 q 39 94 41 260 q 43 427 43 509 q 42 510 42 512 l 42 514 q 42 515 43 515 q 43 532 45 571 q 47 602 47 627 l 47 639 q 46 668 40 692 l 40 693 q 40 697 45 699 l 47 699 q 50 699 52 694 z"},"R":{"x_min":0,"x_max":367,"ha":367,"o":"m 331 2 q 311 36 291 80 q 271 125 259 156 l 227 242 l 197 320 q 189 343 177 383 q 165 423 153 456 q 141 488 124 513 q 95 496 57 496 q 51 496 51 502 q 51 508 57 508 q 106 508 136 537 q 167 566 172 605 q 173 611 173 617 q 173 648 154 669 q 133 693 95 693 q 89 693 83 692 q 80 692 70 691 q 63 691 59 690 q 48 689 42 684 q 45 670 45 650 l 45 640 q 44 615 44 602 l 44 593 q 49 526 52 441 q 55 356 56 313 l 56 151 q 55 32 55 15 q 55 9 49 9 q 43 9 43 15 q 43 49 44 128 l 44 250 q 43 294 42 359 q 42 424 39 481 q 36 538 32 593 l 32 602 q 32 615 33 640 l 33 649 q 33 671 29 684 l 29 686 q 29 689 32 691 q 32 692 33 693 q 42 700 57 702 q 62 703 70 703 q 79 704 81 704 q 88 705 95 705 q 139 705 163 677 q 185 653 185 618 q 185 611 184 604 q 178 550 133 519 q 149 493 162 460 q 174 426 186 386 q 199 345 207 324 q 215 301 236 246 l 269 160 q 281 129 300 85 q 320 41 339 6 q 340 4 340 3 q 340 1 338 0 q 336 -1 335 -1 q 332 -1 331 2 z"},"T":{"x_min":0,"x_max":208,"ha":208,"o":"m 71 689 q 32 690 8 690 q 2 690 2 696 q 2 702 8 702 q 33 702 84 700 q 135 699 160 699 q 166 699 166 693 q 166 687 160 687 q 135 687 83 689 q 88 658 88 620 q 88 582 86 540 q 85 513 85 491 l 85 471 q 93 223 93 10 q 93 4 87 4 q 81 4 81 10 q 81 223 73 471 l 73 492 q 73 513 74 540 q 76 583 76 620 q 76 657 71 688 z"},"P":{"x_min":0,"x_max":209,"ha":209,"o":"m 54 509 q 55 510 57 510 q 106 510 136 539 q 167 568 172 607 q 173 613 173 619 q 173 650 154 671 q 133 695 95 695 q 89 695 83 694 q 79 694 70 693 q 63 693 59 692 q 52 691 47 689 q 49 677 49 660 l 49 648 q 48 622 48 609 l 48 600 z m 42 700 q 48 703 57 704 q 62 705 70 705 q 79 706 81 706 q 88 707 95 707 q 139 707 163 679 q 185 655 185 620 q 185 613 184 606 q 179 562 145 530 q 111 498 57 498 q 56 498 54 499 q 57 442 58 372 q 59 303 60 259 l 60 129 q 59 42 59 11 q 59 5 53 5 q 47 5 47 11 q 47 44 48 126 l 48 251 q 47 294 46 361 q 46 428 43 486 q 40 544 36 600 l 36 608 q 36 620 37 648 l 37 659 q 37 674 35 684 q 34 685 32 686 q 31 688 31 690 q 31 692 33 694 q 33 699 37 701 q 40 701 42 700 z"},"|":{"x_min":0,"x_max":596,"ha":596,"o":""},"t":{"x_min":0,"x_max":258,"ha":258,"o":"m 108 644 l 108 636 q 107 629 106 616 q 105 591 104 548 q 104 527 103 502 l 185 502 q 191 502 191 496 q 191 490 185 490 l 103 490 q 102 423 102 348 q 102 187 103 146 q 103 102 105 76 q 105 62 106 54 q 107 46 108 44 q 117 21 138 15 q 145 13 151 13 q 163 13 171 20 q 182 30 189 53 q 197 82 197 139 q 197 145 203 145 q 209 145 209 139 q 209 80 200 49 q 193 23 179 11 q 167 1 150 1 q 143 1 134 3 q 108 11 96 40 q 95 43 94 53 q 93 61 93 75 q 91 101 91 146 q 90 187 90 348 q 90 423 91 490 l 33 490 q 27 490 27 496 q 27 502 33 502 l 91 502 q 92 527 92 549 q 93 592 94 617 q 95 630 96 637 l 96 644 q 97 647 98 648 q 99 652 103 652 l 106 652 q 109 650 109 647 q 109 646 108 644 z"},"M":{"x_min":0,"x_max":532,"ha":532,"o":"m 416 685 q 416 456 422 376 q 423 368 424 354 q 433 224 433 132 q 433 69 429 25 q 428 19 423 19 l 421 19 q 415 20 415 25 l 415 27 q 419 71 419 133 q 419 223 410 353 q 409 367 408 374 q 402 459 402 670 q 393 660 379 643 l 332 583 q 302 545 286 527 q 275 515 267 508 q 258 500 251 499 q 248 499 246 500 l 242 502 q 239 504 235 508 l 215 528 l 159 588 q 80 676 66 689 q 61 626 61 528 q 61 486 62 437 q 64 353 64 292 q 64 216 61 176 l 61 160 q 61 139 62 96 q 63 83 63 71 q 63 36 58 15 q 56 9 52 9 q 51 9 50 10 q 44 11 44 15 l 44 17 q 49 39 49 72 q 49 83 48 95 q 47 138 47 160 l 47 176 q 49 216 49 295 q 49 355 48 437 q 47 483 47 524 q 47 631 53 699 q 54 705 59 705 l 61 705 q 62 705 63 704 q 65 705 66 705 q 68 705 70 703 q 83 694 169 598 l 225 537 q 238 525 245 518 l 250 513 q 255 516 259 519 q 266 525 276 536 q 292 554 321 591 l 368 651 q 393 682 405 692 q 407 694 409 694 q 412 694 415 690 q 416 688 416 686 z"},"g":{"x_min":0,"x_max":423,"ha":423,"o":"m 308 391 q 291 433 265 460 q 239 487 210 493 q 201 495 193 495 q 139 495 98 417 q 73 367 73 265 q 73 169 93 109 q 106 70 138 48 q 169 27 204 27 q 204 26 205 26 q 239 26 269 47 q 300 68 311 107 l 311 388 q 309 389 308 391 z m 321 499 l 321 123 q 324 121 324 118 l 324 117 q 323 111 321 106 q 321 97 322 69 l 324 26 q 324 12 323 -11 q 322 -34 319 -52 q 316 -71 311 -88 q 298 -130 269 -152 q 243 -172 215 -172 l 207 -172 q 173 -170 146 -144 q 120 -118 112 -72 l 112 -70 q 112 -67 116 -66 l 118 -66 q 121 -66 122 -70 q 130 -113 154 -137 q 177 -161 207 -162 l 213 -162 q 239 -162 263 -144 q 289 -125 301 -86 q 312 -52 314 -4 l 314 27 q 314 57 312 82 q 289 35 241 21 q 223 16 205 16 q 176 16 147 31 q 100 54 83 105 q 63 167 63 265 q 63 370 90 421 q 115 470 147 490 q 170 505 195 505 q 203 505 212 503 q 241 497 267 472 q 293 448 311 410 l 311 499 q 311 504 316 504 q 321 504 321 499 z"},"j":{"x_min":0,"x_max":193,"ha":193,"o":"m 95 494 q 99 455 99 400 q 99 378 98 354 q 98 339 97 310 q 96 282 96 258 q 95 235 95 215 q 95 189 97 133 q 99 87 99 50 l 99 32 q 98 -13 93 -52 q 92 -57 90 -75 q 89 -93 87 -106 q 85 -118 81 -129 q 67 -172 25 -181 q 16 -183 8 -183 q -14 -183 -25 -168 q -26 -166 -26 -165 q -26 -163 -24 -161 q -22 -160 -21 -160 q -19 -160 -17 -162 q -9 -173 8 -173 q 15 -173 23 -171 q 59 -164 72 -126 q 75 -116 77 -104 q 79 -92 80 -74 q 82 -57 83 -50 q 88 -12 89 32 l 89 49 q 89 86 87 132 q 85 188 85 215 l 88 355 q 89 380 89 402 q 89 456 85 494 q 85 499 90 499 q 95 499 95 494 z m 100 637 q 100 631 96 627 q 92 623 86 623 q 80 623 76 627 q 72 631 72 637 q 72 643 76 647 q 80 651 86 651 q 92 651 96 647 q 100 643 100 637 z"},"i":{"x_min":0,"x_max":190,"ha":190,"o":"m 101 487 q 94 452 94 412 q 94 370 96 320 q 98 284 98 259 l 98 243 q 97 209 93 135 q 89 58 89 16 q 89 11 84 11 q 79 11 79 16 q 79 58 83 135 q 87 208 88 243 l 88 258 q 88 283 86 320 q 84 359 84 394 q 84 403 85 412 q 85 454 91 489 q 92 493 95 493 l 97 493 q 101 492 101 489 z m 93 665 q 103 665 103 655 q 103 645 93 645 q 83 645 83 655 q 83 665 93 665 z"},"y":{"x_min":0,"x_max":436,"ha":436,"o":"m 405 493 q 371 449 325 308 l 265 106 q 253 65 215 -41 q 180 -139 166 -186 q 164 -190 161 -190 l 160 -189 q 156 -188 156 -185 l 156 -184 q 171 -136 206 -38 l 224 12 q 221 13 220 16 q 210 50 181 103 q 147 169 137 191 l 65 373 q 62 381 58 391 q 53 401 47 413 q 41 425 38 432 q 20 471 18 495 q 18 500 23 500 q 28 500 28 495 q 30 473 47 436 q 50 429 56 416 l 67 394 q 72 385 75 377 l 147 195 q 156 173 190 108 q 218 55 228 24 q 244 71 255 108 q 310 295 315 311 q 362 452 397 499 q 399 501 401 501 q 402 501 404 500 q 406 498 406 496 q 406 495 405 493 z"},"@":{"x_min":0,"x_max":608,"ha":608,"o":"m 375 520 q 361 470 356 385 q 354 359 354 337 q 354 279 366 254 q 378 228 408 220 q 419 217 428 217 q 456 217 473 243 q 488 266 496 322 q 503 369 503 408 q 503 450 495 484 q 482 538 455 584 q 428 631 391 659 q 346 692 298 692 q 252 692 203 662 q 129 617 99 568 q 70 521 56 449 q 45 395 45 339 q 45 319 46 300 q 51 221 78 157 q 106 93 156 61 q 193 37 251 24 q 295 13 340 13 q 352 13 365 14 q 427 18 469 45 q 511 72 520 125 q 521 129 524 129 l 526 129 q 530 128 530 125 l 530 123 q 520 66 475 37 q 430 8 366 4 q 353 3 340 3 q 294 3 248 14 q 189 28 150 53 q 98 86 70 152 q 42 218 36 300 q 35 319 35 338 q 35 395 46 451 q 61 525 91 574 q 122 624 197 670 q 250 702 299 702 q 350 702 397 667 q 435 637 463 589 q 491 541 505 486 q 513 452 513 409 q 513 368 506 320 q 497 263 481 237 q 462 207 429 207 q 418 207 406 210 q 383 216 367 234 l 367 233 q 345 185 303 185 q 255 185 225 212 q 195 240 181 286 q 170 324 170 364 q 170 369 171 375 q 172 420 185 459 q 193 482 212 500 q 230 517 253 524 q 269 529 283 529 q 318 529 343 499 q 352 488 355 471 q 360 503 365 522 q 366 526 369 526 l 371 526 q 375 525 375 522 z m 348 434 q 347 440 346 451 q 346 462 345 466 q 343 483 335 493 q 314 519 284 519 q 271 519 256 514 q 235 508 218 492 q 202 476 195 455 q 182 418 181 374 q 180 369 180 364 q 180 325 191 289 q 219 195 303 195 q 323 195 336 206 q 348 216 357 237 q 359 240 362 240 l 356 250 q 344 277 344 336 q 344 358 346 385 q 347 408 350 431 q 348 432 348 434 z"},".":{"x_min":0,"x_max":291,"ha":291,"o":"m 144 36 q 144 29 140 24 q 135 20 128 20 q 121 20 116 24 q 112 29 112 36 q 112 43 116 48 q 121 52 128 52 q 135 52 140 48 q 144 43 144 36 z"},"p":{"x_min":0,"x_max":463,"ha":463,"o":"m 93 394 q 92 324 86 101 q 87 102 89 103 l 91 103 q 94 103 95 99 q 108 49 141 29 q 167 13 197 13 q 206 13 216 14 q 256 20 293 46 q 330 73 350 112 q 372 157 376 222 q 377 234 377 247 q 377 299 363 348 q 345 413 306 453 q 266 493 207 493 q 185 493 161 482 q 137 470 121 453 q 111 442 105 423 q 96 399 93 394 z m 83 390 q 82 391 82 392 q 82 394 83 395 l 83 397 q 84 444 84 486 q 84 491 89 491 q 94 491 94 486 l 94 423 l 95 427 q 103 448 113 459 q 131 478 156 490 q 182 503 207 503 q 270 503 312 460 q 354 418 372 351 q 387 299 387 245 q 387 233 386 221 q 382 154 358 108 q 338 67 299 38 q 260 10 217 4 q 207 3 198 3 q 164 3 137 20 q 101 42 86 95 q 81 -73 81 -177 q 81 -182 76 -182 q 71 -182 71 -177 q 71 -71 76 124 q 82 319 83 390 z"},"X":{"x_min":0,"x_max":369,"ha":369,"o":"m 167 507 q 130 610 89 685 q 88 687 88 688 q 88 691 91 693 q 93 694 94 694 q 97 694 99 691 q 138 620 173 525 q 208 627 248 707 q 249 710 252 710 l 256 710 q 259 708 259 705 q 259 703 258 701 q 216 617 179 507 q 200 448 234 338 q 267 229 281 187 q 285 174 289 159 l 298 124 q 303 105 305 94 q 321 37 340 8 q 341 6 341 5 q 341 2 338 0 q 336 -1 335 -1 q 332 -1 330 2 q 310 32 294 91 q 293 94 284 130 q 275 166 269 183 q 254 228 223 331 q 192 434 173 488 q 156 434 133 353 l 117 295 l 99 232 q 94 213 83 176 l 63 114 q 55 89 44 58 q 33 26 22 -2 q 20 -6 17 -6 q 15 -6 14 -5 q 9 -4 9 0 q 9 1 10 2 q 22 30 33 62 l 52 118 q 60 142 71 180 l 87 236 l 105 298 q 117 341 121 357 q 147 447 167 507 z"},"*":{"x_min":0,"x_max":596,"ha":596,"o":""},"Y":{"x_min":0,"x_max":281,"ha":281,"o":"m 2 697 q 22 677 82 586 l 119 530 l 131 512 l 131 511 l 133 513 l 148 533 l 195 595 l 271 698 q 273 700 275 700 q 277 700 280 699 q 282 696 282 694 q 282 692 281 690 l 204 587 l 158 526 l 142 506 l 139 502 q 139 418 142 251 q 145 84 145 1 q 145 -5 139 -5 q 133 -5 133 1 q 133 84 130 250 q 127 416 127 497 q 127 498 126 498 q 125 499 125 500 q 123 502 121 505 l 109 523 l 72 580 q 15 668 -6 689 q -8 691 -8 693 q -8 695 -6 697 q -4 699 -2 699 q 0 699 2 697 z"},"c":{"x_min":0,"x_max":328,"ha":328,"o":"m 279 444 q 272 471 249 483 q 231 492 209 492 q 202 492 194 491 q 163 487 137 470 q 111 452 100 427 q 67 354 67 252 q 67 150 102 78 q 118 44 151 30 q 169 22 188 22 q 203 22 218 27 q 252 38 271 70 q 272 72 274 72 l 278 72 q 280 70 280 68 q 280 66 279 64 q 258 29 221 17 q 205 12 189 12 q 168 12 148 21 q 111 36 92 74 q 57 148 57 252 q 57 356 90 431 q 103 459 132 478 q 160 496 192 501 q 200 502 207 502 q 232 502 253 492 q 280 478 289 446 l 289 444 q 289 441 285 440 l 283 440 q 280 440 279 444 z"},"!":{"x_min":0,"x_max":342,"ha":342,"o":"m 148 685 q 148 638 156 430 q 157 409 157 383 q 157 344 155 292 q 151 177 151 155 q 151 149 145 149 q 139 149 139 155 q 139 180 143 293 q 145 344 145 383 q 145 409 144 430 q 136 638 136 685 q 136 691 142 691 q 148 691 148 685 z m 144 75 q 154 75 154 65 q 154 55 144 55 q 134 55 134 65 q 134 75 144 75 z"},"/":{"x_min":0,"x_max":363,"ha":363,"o":"m 256 694 q 244 667 236 636 q 228 604 220 562 q 211 521 206 502 q 191 442 152 270 q 112 98 87 6 q 86 2 83 2 l 81 2 q 77 3 77 6 l 77 8 q 102 101 142 272 q 181 444 196 504 q 201 523 210 564 q 218 606 227 638 q 235 670 246 698 q 247 702 250 702 q 252 702 253 701 q 257 700 257 697 q 257 695 256 694 z"},"[":{"x_min":0,"x_max":596,"ha":596,"o":""},"6":{"x_min":0,"x_max":429,"ha":429,"o":"m 356 683 q 352 683 342 684 q 333 686 327 686 l 319 686 q 308 686 301 684 q 236 663 191 573 q 149 490 134 377 q 128 329 128 285 q 128 225 139 171 q 159 71 209 31 q 234 11 262 11 q 263 10 264 10 q 291 10 312 25 q 333 39 345 62 q 356 82 356 101 q 356 116 349 130 q 331 166 268 176 q 251 179 236 179 q 221 179 207 176 q 180 170 155 148 q 154 147 152 147 q 150 147 149 149 q 147 150 147 152 q 147 154 149 156 q 176 179 204 186 q 218 189 235 189 q 251 189 270 186 q 337 176 358 134 q 367 118 367 100 q 367 79 354 57 q 341 32 318 16 q 294 0 263 0 q 231 0 203 23 q 150 66 129 169 q 118 224 118 285 q 118 330 124 378 q 139 493 182 578 q 229 671 297 694 q 305 696 319 696 l 328 696 q 333 696 343 694 q 353 693 356 693 q 361 693 361 688 q 361 683 356 683 z"},"r":{"x_min":0,"x_max":294,"ha":294,"o":"m 84 19 q 84 14 79 14 q 74 14 74 19 l 74 490 q 74 495 79 495 q 84 495 84 490 l 84 421 q 115 467 167 486 q 192 495 217 495 q 244 495 272 485 q 276 484 276 481 q 276 479 275 478 q 274 474 271 474 q 269 474 268 475 q 244 486 218 486 q 192 486 165 474 q 111 451 84 403 z"},"2":{"x_min":0,"x_max":429,"ha":429,"o":"m 140 609 q 147 631 170 654 q 193 677 221 689 q 240 697 257 697 q 266 697 274 695 q 301 687 308 653 q 309 650 309 646 q 309 637 306 622 q 302 601 294 566 q 280 505 253 413 q 201 225 177 159 q 170 141 157 95 q 145 51 136 30 l 133 24 q 131 20 130 18 q 130 17 129 16 l 135 16 q 143 15 158 14 q 184 13 229 11 q 320 8 342 8 q 348 8 348 2 q 348 -4 342 -4 q 320 -4 228 -1 q 184 1 158 2 q 142 3 134 4 l 127 4 q 125 5 124 5 l 123 5 l 121 7 q 117 11 117 16 q 117 19 119 23 l 122 29 q 124 33 124 34 q 133 56 145 98 l 165 163 q 189 229 242 416 q 268 508 282 569 q 290 604 294 624 q 296 640 296 647 l 296 651 q 290 677 270 683 q 264 685 256 685 q 242 685 225 678 q 200 667 178 646 q 157 625 152 605 q 150 601 147 601 q 146 601 145 602 q 140 603 140 607 z"},"{":{"x_min":0,"x_max":596,"ha":596,"o":""},"9":{"x_min":0,"x_max":429,"ha":429,"o":"m 149 4 q 231 4 280 92 q 324 172 329 297 q 330 314 330 330 q 330 433 303 523 q 270 632 212 669 q 188 684 164 684 q 147 684 131 677 q 96 660 81 621 q 75 604 75 589 q 75 569 86 552 q 110 518 172 518 q 211 518 234 526 q 258 534 280 559 q 282 561 284 561 q 286 561 288 560 q 289 558 289 556 q 289 554 288 553 q 264 526 238 517 q 212 508 172 508 q 104 508 78 546 q 65 566 65 588 q 65 605 72 624 q 88 668 127 686 q 145 694 163 694 q 190 694 218 677 q 279 639 313 526 q 340 434 340 331 q 340 314 339 297 q 333 169 289 87 q 237 -6 149 -6 q 144 -6 144 -1 q 144 4 149 4 z"}," ":{"x_min":0,"x_max":300,"ha":300,"o":""},"I":{"x_min":0,"x_max":152,"ha":152,"o":"m 60 687 q 60 576 63 354 q 66 132 66 22 q 66 16 60 16 q 54 16 54 22 q 54 132 51 354 q 48 576 48 687 q 48 693 54 693 q 60 693 60 687 z"},"H":{"x_min":0,"x_max":379,"ha":379,"o":"m 61 692 q 64 671 64 638 l 64 549 q 65 530 65 509 l 67 509 q 95 504 128 504 q 161 504 203 506 q 245 509 266 509 q 266 528 265 543 l 265 573 q 265 645 269 695 q 269 701 274 701 l 275 701 q 281 700 281 695 q 277 644 277 573 l 277 543 q 278 532 279 476 q 280 420 280 390 q 280 356 279 292 q 278 227 278 198 q 278 76 285 8 l 285 6 q 285 2 280 1 l 278 1 q 274 1 273 6 q 266 75 266 198 q 266 227 267 292 q 268 356 268 390 q 268 421 266 495 q 247 495 204 492 q 162 490 128 490 q 94 490 66 495 l 66 462 q 66 403 64 284 q 63 241 63 202 q 63 88 70 20 l 70 18 q 70 14 65 13 l 63 13 q 59 13 58 18 q 51 83 51 200 q 51 239 52 284 q 54 381 54 447 q 54 514 52 549 l 52 637 q 52 670 49 690 l 49 692 q 49 696 54 697 l 56 697 q 60 697 61 692 z"},"4":{"x_min":0,"x_max":429,"ha":429,"o":"m 264 635 q 266 619 266 597 q 266 581 265 563 q 264 529 263 518 l 343 518 q 349 518 349 512 q 349 506 343 506 l 263 506 q 264 499 264 492 q 268 420 269 342 l 269 158 q 267 51 267 7 q 267 1 261 1 q 255 1 255 7 q 255 51 257 158 l 257 342 q 256 419 252 492 q 252 499 251 507 q 120 508 91 508 l 90 507 q 88 505 86 505 q 84 505 82 507 q 81 508 81 509 q 77 510 77 514 q 77 520 83 520 l 86 520 q 104 539 128 570 l 180 645 q 210 688 219 700 q 221 702 223 702 q 225 702 228 701 q 230 698 230 696 q 230 694 229 692 q 220 680 194 642 l 144 572 q 120 540 103 520 q 126 520 251 519 q 252 530 253 563 q 254 581 254 596 q 254 618 252 633 l 252 635 q 252 639 257 640 l 259 640 q 263 640 264 635 z"},"~":{"x_min":0,"x_max":596,"ha":596,"o":""},"D":{"x_min":0,"x_max":363,"ha":363,"o":"m 47 -1 q 42 -1 42 4 q 42 121 38 354 q 35 587 35 703 q 35 708 40 708 q 43 708 45 705 q 63 705 84 696 q 105 687 117 680 q 129 672 149 657 q 227 601 260 503 q 283 436 283 364 q 283 332 278 299 q 264 192 204 109 q 145 26 51 -2 l 50 -2 q 48 -2 47 -1 z m 45 695 q 45 581 48 352 q 52 124 52 9 q 141 37 197 117 q 253 196 268 300 q 273 334 273 366 q 273 435 251 500 q 218 595 143 649 q 80 694 45 695 z"},"^":{"x_min":0,"x_max":596,"ha":596,"o":""},"0":{"x_min":0,"x_max":429,"ha":429,"o":"m 296 690 q 298 690 299 689 q 341 669 362 589 q 379 523 381 422 l 381 404 q 381 330 374 255 q 365 170 355 128 q 341 71 292 31 q 255 1 220 1 q 200 1 181 10 q 128 36 102 112 q 80 176 78 272 l 78 284 q 78 358 89 435 q 101 518 117 570 q 138 635 189 673 q 223 698 257 698 q 277 698 296 690 z m 303 676 q 281 688 258 688 q 227 688 195 665 q 147 628 127 566 q 110 516 99 434 q 88 358 88 285 l 88 272 q 90 178 111 115 q 136 43 185 20 q 203 11 221 11 q 253 11 285 38 q 332 77 345 130 q 356 172 364 256 q 371 331 371 404 l 371 422 q 369 521 352 587 q 335 653 303 675 z"},"F":{"x_min":0,"x_max":219,"ha":219,"o":"m 209 684 q 207 679 203 679 q 202 679 201 680 q 196 682 174 684 q 152 685 126 685 q 98 685 80 684 q 70 683 65 682 q 63 682 62 681 q 61 678 61 673 q 60 665 60 653 l 60 638 q 60 620 61 597 q 61 579 63 546 q 65 512 65 504 q 77 507 94 508 q 110 510 119 510 l 175 510 q 181 510 181 504 q 181 498 175 498 l 118 498 q 109 498 93 496 q 77 495 65 491 l 65 11 q 65 5 59 5 q 53 5 53 11 l 53 502 q 53 508 52 522 q 52 537 50 559 q 49 581 49 597 q 48 620 48 638 l 48 653 q 48 666 49 674 q 50 684 52 688 q 53 691 57 692 q 59 693 63 694 q 69 695 79 696 q 98 697 126 697 q 152 697 174 696 q 198 694 205 692 q 209 690 209 687 z"},"`":{"x_min":0,"x_max":596,"ha":596,"o":""},"k":{"x_min":0,"x_max":396,"ha":396,"o":"m 81 696 q 75 666 75 634 q 75 600 78 554 q 82 509 82 490 q 83 426 83 340 l 83 248 q 189 355 297 499 q 299 501 301 501 q 302 501 304 500 q 306 498 306 496 q 306 495 305 493 q 236 401 171 328 q 182 315 196 290 q 216 253 219 248 l 266 175 l 322 88 q 346 50 366 13 q 367 11 367 10 q 367 8 365 7 q 363 6 362 6 q 359 6 358 9 l 313 83 l 258 170 l 211 242 q 207 248 187 285 q 174 308 165 321 q 125 276 83 234 q 82 42 82 15 q 82 10 77 10 q 72 10 72 15 q 72 68 73 164 q 74 261 74 341 q 74 420 72 490 q 72 508 68 554 q 65 599 65 634 q 65 669 71 698 q 72 702 75 702 l 77 702 q 81 701 81 698 z"},"u":{"x_min":0,"x_max":407,"ha":407,"o":"m 84 508 q 74 433 74 353 q 74 296 79 237 q 87 149 108 94 q 132 30 172 14 q 190 7 206 7 q 225 7 240 16 q 265 31 279 95 q 291 150 294 238 q 295 280 295 312 l 295 343 q 294 384 292 434 q 291 484 291 498 q 291 505 298 505 q 305 505 305 498 q 305 484 306 434 q 308 384 309 342 l 309 312 q 309 279 308 238 q 305 148 293 92 q 278 22 248 4 q 229 -7 206 -7 q 187 -7 166 1 q 121 19 95 89 q 73 145 65 236 q 60 296 60 353 q 60 433 70 510 q 71 516 76 516 l 78 516 q 84 515 84 510 z"},"]":{"x_min":0,"x_max":596,"ha":596,"o":""},"U":{"x_min":0,"x_max":347,"ha":347,"o":"m 63 694 q 54 560 54 422 q 54 283 63 140 q 67 81 76 61 q 90 29 133 17 q 147 13 160 13 q 181 13 198 24 q 226 44 232 102 q 234 117 234 197 l 234 700 q 234 706 240 706 q 246 706 246 700 l 246 197 q 246 116 244 101 q 237 37 204 14 q 185 0 160 0 q 145 0 129 5 q 81 19 65 56 q 55 78 51 140 q 42 285 42 423 q 42 562 51 694 q 51 700 57 700 q 63 700 63 694 z"},"o":{"x_min":0,"x_max":425,"ha":425,"o":"m 223 497 q 158 488 115 420 q 70 349 66 249 l 66 235 q 66 144 104 84 q 144 23 211 23 q 222 23 233 24 q 248 26 267 38 q 286 51 294 64 q 311 93 316 151 q 317 170 318 206 q 318 243 318 244 q 319 272 319 296 q 319 368 312 402 q 302 446 282 470 q 260 495 223 497 z m 246 504 q 272 497 289 476 q 312 451 321 404 q 329 369 329 293 q 329 270 328 244 q 328 243 328 206 q 327 170 326 150 q 321 90 302 58 q 293 44 272 30 q 252 16 235 14 q 223 12 211 12 q 138 12 96 78 q 56 141 56 236 l 56 249 q 60 352 106 426 q 150 493 215 506 q 216 507 218 507 l 223 507 q 232 508 241 508 q 246 508 246 504 z"},"N":{"x_min":0,"x_max":344,"ha":344,"o":"m 249 687 q 248 685 247 678 q 246 671 246 660 l 246 607 q 246 597 246 578 q 247 559 247 550 q 248 535 248 525 q 248 515 247 510 q 244 466 242 414 q 241 363 241 326 q 241 289 242 229 q 242 169 242 138 q 242 125 240 95 q 239 74 239 57 l 239 42 q 240 19 245 1 l 245 -1 q 245 -5 241 -6 q 239 -7 238 -7 q 235 -7 233 -3 q 228 17 227 41 l 227 57 q 227 75 228 96 q 230 127 230 138 q 230 169 230 228 q 229 286 229 323 q 229 360 230 411 q 231 462 235 504 l 145 597 q 96 647 59 679 q 59 643 60 566 q 61 490 61 431 q 61 376 59 319 q 58 286 53 218 q 48 147 48 117 q 47 113 47 109 q 47 78 51 16 l 51 14 q 51 10 46 9 l 44 9 q 40 9 39 14 q 35 77 35 109 q 35 113 36 116 q 36 147 41 218 q 46 288 47 319 q 49 377 49 438 q 49 500 48 576 q 47 652 47 694 q 47 700 53 700 q 59 700 59 694 q 100 660 153 605 l 235 520 q 236 525 236 533 q 236 540 235 550 q 235 559 234 578 q 234 597 234 607 l 234 660 q 234 672 235 680 q 237 689 239 693 q 241 696 244 696 q 245 696 247 695 q 250 693 250 690 q 250 689 249 687 z"},"+":{"x_min":0,"x_max":596,"ha":596,"o":""},"G":{"x_min":0,"x_max":344,"ha":344,"o":"m 253 633 q 247 653 234 668 q 221 683 203 685 q 197 686 192 686 q 133 686 94 618 q 64 569 46 481 q 32 414 29 348 q 28 334 28 320 q 28 266 38 210 q 49 139 75 83 q 89 55 112 39 q 135 23 162 22 l 165 22 q 190 22 211 35 q 234 49 248 78 q 263 112 269 184 l 155 184 q 148 184 148 191 q 148 198 155 198 l 273 198 q 274 199 277 199 q 282 198 282 194 l 282 189 q 274 109 258 74 q 244 41 218 25 q 193 10 165 10 l 161 10 q 131 12 105 30 q 79 47 65 77 q 37 135 26 208 q 16 265 16 320 q 16 334 17 348 q 20 416 34 483 q 53 572 83 624 q 127 698 192 698 q 198 698 205 697 q 227 695 242 677 q 258 659 265 637 l 265 635 q 265 631 261 630 q 259 629 258 629 q 255 629 253 633 z"},"q":{"x_min":0,"x_max":450,"ha":450,"o":"m 339 497 q 342 455 342 432 q 342 408 340 366 q 337 324 337 302 q 337 217 336 56 q 334 -104 334 -177 q 344 -144 371 -78 q 398 -11 400 -5 q 402 0 405 0 q 407 0 408 -1 q 413 -2 413 -6 q 413 -7 412 -9 l 386 -71 q 367 -118 354 -154 q 341 -190 337 -213 q 336 -217 332 -218 q 331 -219 329 -219 q 324 -219 324 -214 q 324 -133 326 85 q 309 59 278 38 q 248 16 215 7 q 196 0 176 0 q 159 0 142 6 q 105 17 87 55 q 59 117 59 198 q 59 217 60 237 q 68 342 107 413 q 126 449 158 474 q 190 498 225 504 q 236 506 246 506 q 301 506 332 448 q 332 474 329 495 l 329 497 q 329 500 333 501 l 335 501 q 338 501 339 497 z m 331 424 q 316 466 288 483 q 267 496 243 496 q 235 496 226 494 q 194 489 164 466 q 134 442 115 409 q 78 339 70 236 q 68 215 68 196 q 68 118 95 59 q 112 26 145 16 q 161 10 177 10 q 195 10 212 16 q 248 26 279 50 q 310 73 324 101 q 324 103 326 104 q 327 223 327 302 q 327 324 329 366 q 331 408 332 423 q 332 424 331 424 z"},"d":{"x_min":0,"x_max":432,"ha":432,"o":"m 314 440 q 303 480 252 494 q 231 500 213 500 q 186 500 165 487 q 132 467 103 406 q 69 335 63 227 q 62 210 62 193 q 62 102 91 49 q 111 15 146 10 q 153 9 160 9 q 186 9 216 24 q 252 42 282 72 q 312 103 321 132 l 322 132 q 322 187 324 384 q 327 582 327 689 q 327 694 332 694 q 337 694 337 689 q 337 575 334 348 q 331 120 331 6 q 331 1 326 1 q 321 1 321 6 l 321 108 q 306 81 279 56 q 252 31 221 15 q 187 -1 159 -1 q 152 -1 145 0 q 104 6 83 45 q 52 100 52 194 q 52 210 53 227 q 59 338 93 410 q 124 474 159 495 q 184 510 214 510 q 234 510 255 504 q 311 488 324 442 l 324 440 q 324 437 320 436 l 318 436 q 315 436 314 440 z"},"1":{"x_min":0,"x_max":429,"ha":429,"o":"m 150 608 q 155 615 191 656 l 217 684 l 225 694 l 228 696 q 228 697 228 698 q 229 698 230 698 q 231 699 233 699 q 239 699 243 692 q 244 690 246 685 q 251 670 251 638 q 251 624 250 607 q 250 597 248 568 q 246 538 246 527 q 246 389 253 179 q 253 166 251 90 l 251 64 q 251 28 255 3 l 255 1 q 255 -3 250 -4 l 248 -4 q 244 -4 243 1 q 239 27 239 64 l 239 90 q 241 166 241 179 q 234 389 234 527 q 234 538 236 568 q 238 598 238 607 q 239 623 239 637 q 239 668 234 681 q 233 684 233 685 l 225 676 l 200 648 q 164 607 160 602 q 158 599 155 599 q 153 599 152 601 q 149 603 149 605 q 149 606 150 608 z"},"5":{"x_min":0,"x_max":429,"ha":429,"o":"m 283 695 q 274 693 249 692 l 200 692 q 164 693 155 693 q 146 693 141 692 l 139 692 q 138 691 138 690 q 137 686 136 678 q 135 665 133 646 q 131 627 130 613 l 130 601 q 132 600 136 600 l 148 600 q 188 600 216 596 q 243 591 270 574 q 342 531 364 420 q 373 373 373 316 q 373 278 369 235 q 355 110 280 44 q 252 21 215 11 q 193 4 171 4 q 157 4 143 7 q 106 14 81 40 q 56 65 53 108 q 53 114 59 114 q 65 114 65 108 q 68 70 90 48 q 112 25 145 19 q 158 17 171 17 q 191 17 212 22 q 247 31 272 54 q 344 116 357 237 q 362 281 362 320 q 362 373 353 418 q 331 523 264 564 q 238 579 212 584 q 187 588 148 588 l 135 588 q 130 588 127 589 q 121 591 119 595 q 118 596 118 598 l 118 614 q 119 628 121 647 q 123 666 124 680 q 126 688 126 692 q 128 698 129 700 q 130 702 132 703 q 133 703 135 704 l 140 704 q 145 705 155 705 q 164 705 200 704 l 248 704 q 272 705 279 707 l 281 707 q 285 707 287 703 l 287 700 q 287 697 283 695 z"}}}
